<?xml version="1.0" encoding="UTF-8" standalone="no"?>
<svg
   width="16"
   height="16"
   fill="none"
   version="1.1"
   id="svg1"
   sodipodi:docname="font-size.svg"
   inkscape:version="1.3 (0e150ed6c4, 2023-07-21)"
   xmlns:inkscape="http://www.inkscape.org/namespaces/inkscape"
   xmlns:sodipodi="http://sodipodi.sourceforge.net/DTD/sodipodi-0.dtd"
   xmlns="http://www.w3.org/2000/svg"
   xmlns:svg="http://www.w3.org/2000/svg">
  <defs
     id="defs1" />
  <sodipodi:namedview
     id="namedview1"
     pagecolor="#ffffff"
     bordercolor="#999999"
     borderopacity="1"
     inkscape:showpageshadow="0"
     inkscape:pageopacity="0"
     inkscape:pagecheckerboard="0"
     inkscape:deskcolor="#d1d1d1"
     inkscape:zoom="51.3125"
     inkscape:cx="8"
     inkscape:cy="8"
     inkscape:window-width="1920"
     inkscape:window-height="1017"
     inkscape:window-x="1912"
     inkscape:window-y="-8"
     inkscape:window-maximized="1"
     inkscape:current-layer="svg1" />
  <path
     d="M 4.978,4.475 2.154,12.25 H 1 L 4.252,3.719 H 4.996 Z M 7.346,12.25 4.516,4.475 4.498,3.719 H 5.242 L 8.506,12.25 Z M 7.199,9.092 v 0.926 H 2.406 V 9.092 H 7.2 Z"
     fill="#000000"
     id="path1"
     sodipodi:nodetypes="cccccccccccccccccc" />
  <path
     fill-rule="evenodd"
     d="m 10.147,9.369 c 0.195364,-0.1958584 0.512636,-0.1958584 0.708,0 l 1.646,1.647 1.646,-1.647 c 0.472,-0.4719998 1.18,0.2360002 0.708,0.708 l -2,2 c -0.195364,0.195858 -0.512636,0.195858 -0.708,0 l -2,-2 c -0.1958577,-0.1953639 -0.1958577,-0.5126361 0,-0.708 z"
     id="path2"
     style="fill:#000000"
     sodipodi:nodetypes="ccccscccc" />
  <path
     fill-rule="evenodd"
     d="m 12.501,4.5080183 c 0.276142,0 0.5,0.3006399 0.5,0.6714982 v 5.3719855 c 0,0.89533 -1,0.89533 -1,0 V 5.1795165 c 0,-0.3708583 0.223858,-0.6714982 0.5,-0.6714982 z"
     id="path3"
     style="fill:#000000;stroke-width:1.15888"
     sodipodi:nodetypes="ssssss" />
  <path
     fill-rule="evenodd"
     d="m 14.863657,6.5548935 c -0.195364,0.1958584 -0.512636,0.1958584 -0.708,0 l -1.646,-1.647 -1.646,1.647 c -0.472,0.4719998 -1.1799997,-0.2360002 -0.708,-0.708 l 2,-2 c 0.195364,-0.195858 0.512636,-0.195858 0.708,0 l 2,2 c 0.195859,0.1953639 0.195859,0.5126361 0,0.708 z"
     id="path2-2"
     style="fill:#000000"
     sodipodi:nodetypes="ccccscccc" />
</svg>
