<?xml version="1.0" encoding="utf-8"?>
<!-- Generator: Adobe Illustrator 22.1.0, SVG Export Plug-In . SVG Version: 6.00 Build 0)  -->
<svg version="1.1" id="Layer_1" xmlns="http://www.w3.org/2000/svg" xmlns:xlink="http://www.w3.org/1999/xlink" x="0px" y="0px"
	 viewBox="0 0 32 32" style="enable-background:new 0 0 32 32;" xml:space="preserve">
<title>wolfram</title>
<path d="M26.8,16l4.4-4.9l-6.5-1.4l0.7-6.6l-6.1,2.7L16,0l-3.3,5.7L6.6,3.1l0.7,6.6l-6.5,1.4L5.2,16l-4.4,5l6.5,1.4l-0.7,6.6
	l6.1-2.7L16,32l3.3-5.7l6.1,2.7l-0.7-6.6l6.5-1.4L26.8,16z M28.9,19.7l-3.8-1.3l-2.5-3.3l3.4,1.3L28.9,19.7z M29.6,11.6l-3.5,3.9
	L22,14l2.5-3.5L29.6,11.6z M23.8,9.8l-2,2.9l0.1-4.2l2.4-3.2L23.8,9.8z M19.4,6.6l4.1-1.8L21.2,8l-3.9,1.4L19.4,6.6z M21,9l-0.1,4.9
	l-4.5,1.5v-4.7L21,9z M16,1.7l2.6,4.5L16,9.6l-2.6-3.4L16,1.7z M12.6,6.6l2.2,2.8L10.8,8L8.4,4.8L12.6,6.6z M15.6,10.6v4.7l-4.4-1.5
	L11,9L15.6,10.6z M10.1,8.5l0.1,4.2l-2-2.9L7.7,5.3L10.1,8.5z M2.4,11.6l5.1-1.1L10,14l-4.1,1.5L2.4,11.6z M6,16.4l3.4-1.2l-2.5,3.3
	l-3.8,1.3L6,16.4z M3.2,20.6l3.9-1.3l4.1,1.2l-3.5,1.1L3.2,20.6z M7.6,27.5l0.5-5.2l4.2-1.3l0.1,4.4L7.6,27.5z M12.5,19.9l-4.7-1.4
	l3-3.9l4.4,1.5L12.5,19.9z M15.6,29.5l-2.3-3.9l-0.1-3.7l2.4,3.5L15.6,29.5z M13.3,20.4l2.7-3.7l2.7,3.7l-2.7,4L13.3,20.4z
	 M18.7,25.6l-2.3,3.9v-4.1l2.4-3.5L18.7,25.6z M16.7,16.2l4.5-1.5l3,3.9l-4.7,1.4L16.7,16.2z M19.6,25.4l0.1-4.4l4.2,1.3l0.5,5.2
	L19.6,25.4z M24.3,21.6l-3.5-1.1l4.1-1.2l3.9,1.3L24.3,21.6z"/>
</svg>
